<svg width="24" height="24" viewBox="0 0 24 24" fill="none" xmlns="http://www.w3.org/2000/svg">
<path d="M20.5101 7.89588H19.8572C19.6147 7.89588 19.2719 8.24009 19.2719 8.46046V16.4476C19.2719 16.6683 19.6147 16.969 19.8572 16.969H20.5101V18.8649H14.594V16.969H15.8323V8.57298H15.7716L12.88 18.8649H10.6413L7.78701 8.57298H7.71478V16.969H8.95304V18.8649H4V16.969H4.63423C4.89543 16.969 5.23826 16.6683 5.23826 16.4476V8.46046C5.23826 8.24009 4.89543 7.89588 4.63423 7.89588H4V6H10.1936L12.227 13.4481H12.283L14.3352 6H20.5101V7.89588Z" fill="#757E9A"/>
</svg>
