<svg width="24" height="24" viewBox="0 0 24 24" fill="none" xmlns="http://www.w3.org/2000/svg">
<path d="M10.5275 17.0757C10.0897 17.0757 10.1641 16.9176 10.0131 16.5189L8.72559 12.466L18.636 6.84235" fill="#9399AB"/>
<path d="M10.5276 17.0757C10.8654 17.0757 11.0147 16.928 11.2033 16.7526L13.0052 15.0767L10.7576 13.7803" fill="#70788E"/>
<path d="M10.7572 13.7806L16.2035 17.6293C16.825 17.9573 17.2735 17.7875 17.4283 17.0774L19.6452 7.08498C19.8722 6.21458 19.2983 5.81981 18.7038 6.07799L5.68617 10.8792C4.79759 11.2201 4.80277 11.6943 5.5242 11.9055L8.86481 12.9028L16.5987 8.23587C16.9638 8.02411 17.2989 8.13796 17.0238 8.37143" fill="#B6BAC7"/>
</svg>
