<svg width="24" height="24" viewBox="0 0 24 24" fill="none" xmlns="http://www.w3.org/2000/svg">
<path fill-rule="evenodd" clip-rule="evenodd" d="M20.5091 6.62981C19.9016 6.90701 19.2489 7.09357 18.564 7.17837C19.2631 6.74747 19.8002 6.06534 20.053 5.25282C19.3985 5.65166 18.6736 5.94131 17.9021 6.0974C17.2845 5.42136 16.4039 5 15.4298 5C13.5595 5 12.0426 6.55825 12.0426 8.47957C12.0426 8.75253 12.0723 9.01807 12.1303 9.27274C9.31485 9.12699 6.81872 7.74099 5.14836 5.63682C4.85685 6.15093 4.68981 6.74826 4.68981 7.38588C4.68981 8.59299 5.28779 9.65793 6.19636 10.2824C5.64173 10.2639 5.11908 10.1075 4.66247 9.84649V9.89021C4.66247 11.577 5.83108 12.9829 7.3789 13.3029C7.09513 13.3824 6.79589 13.4248 6.48813 13.4248C6.26989 13.4248 6.05732 13.4036 5.85094 13.3625C6.28175 14.7453 7.53291 15.7513 9.01495 15.7794C7.85563 16.7122 6.395 17.2687 4.80745 17.2687C4.534 17.2687 4.26494 17.2528 4 17.2202C5.49881 18.2077 7.27958 18.7838 9.19231 18.7838C15.4223 18.7838 18.8295 13.481 18.8295 8.88305C18.8295 8.73199 18.8261 8.58226 18.8197 8.43253C19.4816 7.94226 20.0561 7.32877 20.5101 6.63047" fill="#6188FF"/>
</svg>
