<svg width="120" height="30" viewBox="0 0 120 30" fill="none" xmlns="http://www.w3.org/2000/svg">
<path fill-rule="evenodd" clip-rule="evenodd" d="M83.923 18.7478C82.229 18.3233 82.229 18.3057 82.229 17.4036C82.229 16.796 82.2909 16.506 83.6862 16.506C84.6443 16.506 86.0542 16.6652 86.9613 16.819C87.0852 16.8367 87.2127 16.8102 87.3147 16.7306C87.4167 16.6599 87.4823 16.5449 87.4969 16.4211L87.7555 14.4003C87.7737 14.1704 87.628 13.9581 87.3912 13.9051C86.3347 13.6698 84.8775 13.516 83.6753 13.516C79.4675 13.516 78.6114 15.0547 78.6114 17.3665C78.6114 19.9072 79.0941 20.7624 82.3128 21.523C84.433 22.0182 84.433 22.3852 84.433 22.9954C84.433 23.7967 84.3602 24.0744 82.9758 24.0744C81.8574 24.0744 80.5641 23.9063 79.4275 23.6109C79.3 23.5809 79.1724 23.6003 79.0632 23.664C78.9539 23.733 78.8755 23.8409 78.8519 23.9647L78.5039 25.8935C78.462 26.1146 78.595 26.3312 78.8136 26.4002C80.0559 26.7893 81.8374 27.0546 83.1452 27.0546C87.2145 27.0546 88.0452 25.392 88.0452 22.9158C88.0452 20.1743 87.5461 19.6614 83.9176 18.7293L83.923 18.747V18.7478ZM73.3708 18.7478C71.6768 18.3233 71.6768 18.3057 71.6768 17.4036C71.6768 16.796 71.7387 16.506 73.134 16.506C74.0904 16.506 75.502 16.6652 76.4092 16.819C76.533 16.8367 76.6605 16.8102 76.7625 16.7306C76.8646 16.6599 76.9301 16.5449 76.9447 16.4211L77.2034 14.4003C77.2325 14.1704 77.0795 13.9581 76.8482 13.9051C75.8099 13.6698 74.3527 13.516 73.1504 13.516C68.9536 13.516 68.0866 15.0547 68.0866 17.3665C68.0866 19.9072 68.5784 20.7624 71.7952 21.523C73.9155 22.0182 73.9155 22.3852 73.9155 22.9954C73.9155 23.7967 73.8426 24.0744 72.4583 24.0744C71.338 24.0744 70.0447 23.9063 68.9063 23.6109C68.7787 23.5809 68.6512 23.6003 68.5419 23.664C68.4327 23.733 68.3543 23.8409 68.3307 23.9647L67.9663 25.8838C67.9299 26.1048 68.0574 26.3224 68.2815 26.3914C69.5201 26.7805 71.3016 27.0458 72.6113 27.0458C76.6733 27.0458 77.5112 25.3832 77.5112 22.907C77.5112 20.1655 77.0048 19.6525 73.3763 18.7204L73.3708 18.7381V18.7478ZM36.0202 9.45673C35.9601 9.26924 35.7834 9.1419 35.5794 9.1419H31.2651C31.0647 9.1419 30.8826 9.26836 30.8225 9.45408L25.3788 26.203C25.3369 26.3357 25.3606 26.486 25.448 26.601C25.5354 26.7159 25.6739 26.784 25.8214 26.784H28.7905C28.9964 26.784 29.1767 26.6514 29.235 26.4657L32.9846 14.1377C32.9846 14.1377 33.0848 13.8281 33.4218 13.8281C33.7679 13.8281 33.859 14.1465 33.859 14.1465L35.5985 19.9921H33.267C33.0666 19.9921 32.8844 20.1274 32.8298 20.3193L32.1558 22.6364C32.1194 22.769 32.1558 22.9194 32.2287 23.0255C32.3198 23.1378 32.4655 23.2024 32.6112 23.2024H36.5913L37.6386 26.4683C37.6969 26.654 37.8754 26.7814 38.0758 26.7814H41.0449C41.1906 26.7814 41.3327 26.7106 41.4202 26.5957C41.5112 26.4789 41.5367 26.3304 41.493 26.1942L36.0439 9.42666L36.0257 9.45496L36.0202 9.45673ZM92.7611 13.7848H90.0288C89.7738 13.7848 89.568 13.9855 89.568 14.2332V26.3666C89.568 26.6142 89.7756 26.8194 90.0306 26.8194H92.7629C93.018 26.8194 93.2247 26.6187 93.2247 26.3684V14.2376C93.2247 13.99 93.0243 13.7928 92.7693 13.7928L92.7602 13.7857L92.7611 13.7848ZM54.017 8.81468H51.2847C51.0297 8.81468 50.8239 9.01543 50.8239 9.26305V26.3666C50.8239 26.6142 51.0315 26.8194 51.2865 26.8194H54.0188C54.2738 26.8194 54.4797 26.6187 54.4797 26.3684V9.26747C54.4797 9.01985 54.2793 8.82264 54.0243 8.82264L54.017 8.81557V8.81468ZM115.439 13.5239C113.996 13.5239 112.024 14.0085 110.357 14.7691L110.157 14.1147C110.102 13.9201 109.92 13.7919 109.715 13.7919H107.693C107.438 13.7919 107.229 13.9926 107.229 14.2402V26.3737C107.229 26.6213 107.429 26.8247 107.684 26.8247H110.416C110.671 26.8247 110.881 26.6248 110.881 26.3737V17.9722C111.865 17.4859 113.249 16.9818 114.071 16.9818C114.687 16.9818 114.915 17.2064 114.915 17.8042V26.3648C114.915 26.616 115.124 26.8159 115.379 26.8159H118.111C118.366 26.8159 118.572 26.616 118.572 26.3648V17.4567C118.572 14.8522 117.516 13.5301 115.437 13.5301H115.436L115.439 13.5239ZM12.1672 20.7377C12.0943 20.6669 11.9905 20.5917 11.812 20.5917C11.5843 20.5917 11.4513 20.7438 11.4003 20.8181C10.1252 22.7107 9.46947 24.4971 9.3784 26.2923C9.37567 26.425 9.42667 26.5576 9.51957 26.6549C9.61064 26.761 9.74726 26.8141 9.88387 26.8141H12.9113C13.1754 26.8141 13.394 26.6195 13.4122 26.3719C13.4851 25.5052 13.7583 24.6386 14.2683 23.7365C14.4414 23.4182 14.3047 23.1263 14.2046 22.9999C13.7036 22.3631 13.0907 21.691 12.1799 20.766L12.1763 20.7483L12.1672 20.7377ZM62.8761 22.0288V23.5915C62.4298 23.8391 61.6101 24.1752 60.6173 24.1752C59.7703 24.1752 59.5062 23.9275 59.5062 23.0962C59.5062 22.3003 59.6701 22.0492 60.672 22.0492H62.8761V22.0297V22.0288ZM101.693 22.0288V23.5915C101.238 23.8391 100.418 24.1752 99.4343 24.1752C98.5873 24.1752 98.3232 23.9275 98.3232 23.0962C98.3232 22.3003 98.4871 22.0492 99.489 22.0492H101.693V22.0297V22.0288ZM48.9686 24.2265C48.9504 24.0991 48.8775 23.9877 48.7682 23.9169C48.659 23.8462 48.5296 23.825 48.4021 23.855C47.9103 23.9718 47.4549 24.0354 47.0906 24.0354C46.4166 24.0354 46.107 23.7524 46.107 23.1157V16.6864H48.7573C49.0123 16.6864 49.22 16.483 49.22 16.2354V14.2279C49.22 13.9802 49.0105 13.7768 48.7555 13.7768H46.1143V10.6913C46.1143 10.5586 46.0523 10.4375 45.9503 10.3508C45.8501 10.265 45.7135 10.227 45.586 10.2447L42.8537 10.6161C42.6242 10.6453 42.453 10.8346 42.453 11.0583V13.7821H40.962C40.707 13.7821 40.4994 13.9829 40.4994 14.2305V16.2469C40.4994 16.4945 40.718 16.6997 40.973 16.6997H42.4593V23.5358C42.4593 25.8855 43.729 27.0732 46.2354 27.0732C46.9458 27.0732 48.1589 26.914 48.9495 26.6487C49.159 26.578 49.2883 26.3719 49.2537 26.1535L48.9577 24.2344L48.9668 24.2212L48.9686 24.2265ZM61.0445 13.5301C59.6601 13.5301 57.977 13.7423 56.7548 14.0696C56.518 14.1315 56.3723 14.3481 56.4087 14.5736L56.7238 16.5016C56.742 16.6192 56.8149 16.7253 56.9151 16.7961C57.0171 16.8668 57.1446 16.8845 57.2685 16.8668C58.4033 16.6546 59.5763 16.5307 60.5691 16.5307C62.5363 16.5307 62.8533 16.9375 62.8533 18.2287V19.3607H59.9388C57.1446 19.3607 55.9497 20.475 55.9497 23.1104C55.9497 25.622 57.2612 27.0546 59.5381 27.0546C60.8623 27.0546 62.1848 26.7009 63.2959 26.0465L63.4143 26.4586C63.469 26.6531 63.6511 26.7858 63.8606 26.7858H66.0792C66.3342 26.7858 66.5401 26.5824 66.5401 26.3348V18.2694C66.5401 14.8027 65.0555 13.5115 61.0573 13.5115L61.0409 13.5204L61.0445 13.5301ZM99.8551 13.5301C98.4707 13.5301 96.7949 13.7423 95.5745 14.0696C95.3468 14.1315 95.2011 14.3481 95.2421 14.5736L95.5608 16.5016C95.579 16.6192 95.6519 16.7253 95.7521 16.7961C95.8559 16.8668 95.9834 16.8845 96.1073 16.8668C97.2366 16.6546 98.4024 16.5307 99.4043 16.5307C101.372 16.5307 101.681 16.9375 101.681 18.2287V19.3607H98.7667C95.9616 19.3607 94.7666 20.475 94.7666 23.1104C94.7666 25.622 96.0754 27.0546 98.3551 27.0546C99.6784 27.0546 100.996 26.7009 102.107 26.0465L102.226 26.4586C102.28 26.6531 102.463 26.7858 102.672 26.7858H104.876C105.131 26.7858 105.341 26.5824 105.341 26.3348V18.2694C105.341 14.8027 103.856 13.5115 99.8578 13.5115L99.8624 13.5204L99.8551 13.5301ZM24.4498 8.89604C24.3587 8.82972 24.254 8.79611 24.1465 8.79611C24.0737 8.79611 24.019 8.80672 23.9644 8.82795C22.8714 9.22945 21.7785 9.53544 20.7767 9.76006C20.5763 9.81313 20.3978 9.95462 20.3395 10.1315C19.6109 12.0771 17.7347 13.9343 15.7857 15.8622C15.7128 15.9329 15.6035 16.039 15.4213 16.039C15.2392 16.039 15.1299 15.9506 15.057 15.8745C13.0898 13.9378 11.2318 12.0983 10.5032 10.1527C10.4303 9.97585 10.2664 9.83435 10.066 9.78129C9.06418 9.55136 7.95304 9.24183 6.87834 8.84387C6.82369 8.82618 6.75447 8.81733 6.69618 8.81733C6.58689 8.81733 6.48124 8.85271 6.39199 8.91727C6.25355 9.01455 6.18251 9.18258 6.1989 9.34176C6.36284 10.9566 7.0277 12.5343 8.2117 14.1881C9.33195 15.7445 10.7801 17.1861 12.1918 18.578C14.7783 21.1427 17.2283 23.5658 17.4451 26.3781C17.4633 26.6293 17.6819 26.8256 17.9405 26.8256H20.9825C21.1191 26.8256 21.2521 26.7725 21.3468 26.6753C21.4415 26.578 21.4925 26.4489 21.4834 26.3162C21.3869 24.4387 20.6583 22.5577 19.2557 20.5652C18.9642 20.1496 18.6546 19.7427 18.324 19.3448C18.191 19.1856 18.2475 18.9822 18.3495 18.8831L18.6591 18.5789C20.0681 17.1905 21.5189 15.749 22.6392 14.1925C23.8232 12.5432 24.4789 10.9734 24.6474 9.35945C24.6657 9.19584 24.5892 9.02339 24.4544 8.92346L24.4635 8.91019L24.4498 8.89604ZM15.4332 10.3464C16.3868 10.3464 16.9405 10.2871 17.1336 10.2871C17.3522 10.2871 17.589 10.464 17.589 10.7293C17.589 10.8001 17.5708 10.8531 17.5525 10.9062C17.425 11.2316 16.8421 12.4132 15.7674 13.4266C15.6399 13.5398 15.5124 13.5611 15.4213 13.5611C15.3303 13.5611 15.1845 13.5398 15.0625 13.4266C13.9878 12.4132 13.4122 11.2334 13.2865 10.9027C13.2683 10.8496 13.2501 10.7965 13.2501 10.7169C13.2501 10.4605 13.4741 10.2659 13.7091 10.2659C13.904 10.2659 14.4559 10.319 15.4104 10.319H15.4141L15.4323 10.3367L15.4332 10.3464ZM92.7593 8.8191H90.0343C89.7793 8.8191 89.5716 9.01366 89.5716 9.26128V11.596C89.5716 11.8436 89.7793 12.0453 90.0343 12.0453H92.7666C93.0216 12.0453 93.2283 11.8507 93.2283 11.6031V9.24979C93.2283 9.00217 93.0216 8.80318 92.7666 8.80318L92.7593 8.82441V8.8191ZM28.7395 3.24939C28.6184 3.0902 28.4299 3.00177 28.2295 3.00177C28.1266 3.00177 28.0246 3.02299 27.938 3.07252C24.2039 5.05349 19.8805 6.10234 15.4286 6.10411C10.9786 6.10411 6.65429 5.05349 2.92378 3.07075C2.8327 3.01769 2.73252 3 2.63233 3C2.43196 3 2.2407 3.08844 2.1223 3.24762C1.94561 3.45987 1.94015 3.84899 2.2407 4.07892C4.10778 5.42315 6.16794 6.48439 8.36107 7.20956C10.638 7.95243 13.0133 8.34155 15.4286 8.34155C17.8458 8.34155 20.2229 7.95243 22.4962 7.20956C24.6912 6.48439 26.7513 5.42315 28.622 4.07892C28.9226 3.84899 28.9135 3.45987 28.7404 3.22993V3.24939H28.7395Z" fill="#5982E7"/>
</svg>
