<svg width="120" height="30" viewBox="0 0 120 30" fill="none" xmlns="http://www.w3.org/2000/svg">
<path fill-rule="evenodd" clip-rule="evenodd" d="M107.422 18.6368C107.422 16.3331 106.452 13.6667 103.434 9.94974L96.1571 1H86.0257L91.7936 7.27897C92.7654 8.32605 94.0031 9.26702 94.0031 9.26702C92.6006 8.48259 90.8246 8.16864 89.422 8.16864C86.0813 8.16864 82.6859 8.8496 79.6676 10.4715C76.4344 12.1978 74.2759 15.0764 74.2759 18.8977C74.2759 21.8276 75.6257 24.0783 77.3497 25.8046C81.2296 29.5746 88.2908 29.9399 90.8783 29.9399C94.7054 29.9399 100.689 29.1015 104.083 26.1194C106.079 24.3401 107.425 21.8807 107.425 18.6377L107.422 18.6368ZM118.578 8.74524H109.793V29.2598H118.578V8.74524ZM46.3572 29.2598L26.9532 1H16.0668L19.0751 4.45343L2 29.2598H11.809L14.7353 24.6027H33.2366L36.224 29.258H46.3572V29.2598ZM72.0655 20.6771V8.74524H63.5516V17.9037C63.5516 20.5214 63.4423 21.2519 63.2811 21.932C62.6891 23.8157 60.6399 24.6523 58.536 24.6523C55.6261 24.6523 54.2781 23.553 53.7408 21.8258C53.5768 21.251 53.5249 20.6249 53.4712 19.9952C53.4166 19.316 53.4712 18.5829 53.4712 17.7976V8.74524H44.848V20.7283C44.848 23.3991 45.7634 25.3863 47.2725 26.7482C49.8591 29.2067 54.2253 29.9407 58.2682 29.9407C63.1736 29.9407 66.9478 29.2598 69.6419 26.6951C71.0445 25.3863 72.0682 23.66 72.0682 20.6771H72.0655ZM99.0151 18.8977C99.0151 21.0423 97.5597 22.6651 95.7272 23.5548C94.219 24.3401 92.4394 24.5488 90.8756 24.5488C89.3127 24.5488 87.4802 24.2366 85.9711 23.5026C84.1386 22.6138 82.7379 20.8866 82.7379 19.0012C82.7379 16.7523 84.5157 14.9729 86.6177 14.0824C87.911 13.5058 89.4748 13.2971 90.7135 13.2971C91.8993 13.2971 93.6252 13.4536 94.9713 13.978C97.3976 14.9729 99.0151 16.8557 99.0151 18.8977V18.8977ZM29.8167 19.0879H18.0906L23.934 9.726L29.8176 19.0879H29.8167Z" fill="#D6DAE5"/>
</svg>
