<svg width="120" height="30" viewBox="0 0 120 30" fill="none" xmlns="http://www.w3.org/2000/svg">
<path fill-rule="evenodd" clip-rule="evenodd" d="M16.9321 23.2004C16.7617 23.2004 16.677 23.2835 16.677 23.2835C16.677 23.2835 14.5431 24.9461 10.7024 24.9461C6.86351 24.9452 4.73231 23.2826 4.73231 23.2826C4.73231 23.2826 4.56199 23.2004 4.47729 23.2004C4.30607 23.2004 4.13484 23.2835 4.13484 23.532V23.6142C4.47638 25.3547 4.73231 26.5972 4.73231 26.7626C4.98732 28.006 7.5484 29 10.6195 29C13.6915 29 16.2517 28.006 16.5076 26.7626C16.5076 26.5972 16.7627 25.3547 17.0996 23.6142V23.532C17.1816 23.3657 17.0996 23.2004 16.9266 23.2004H16.9321ZM34.2531 19.1411C35.3624 18.561 35.7895 17.7323 35.7895 16.488V14.7485C35.7895 12.2634 34.2531 11.0218 31.0107 11.0218H24.526C24.271 11.0218 24.0998 11.1881 24.0998 11.4375V27.6743C24.0998 27.9237 24.2701 28.09 24.526 28.09H31.5226C34.5946 28.09 36.3861 26.5981 36.3861 24.0308V22.2886C36.3861 20.7984 35.6183 19.639 34.2531 19.1402V19.1411ZM40.909 15.4949H38.2677C38.0127 15.4949 37.8397 15.6612 37.8397 15.9106V27.6743C37.8397 27.922 38.0127 28.09 38.2677 28.09H40.9181C41.1731 28.09 41.3461 27.922 41.3461 27.6743V15.9097C41.3461 15.6621 41.1731 15.494 40.9181 15.494L40.909 15.4949ZM104.481 15.2473C100.901 15.2473 99.1071 16.9868 99.1071 20.2174V23.4489C99.1071 26.7634 100.901 28.3376 104.654 28.3376C106.193 28.3376 107.814 28.09 109.18 27.5912C109.351 27.509 109.521 27.3436 109.435 27.0942L109.009 25.2724C109.009 25.1884 108.924 25.023 108.839 25.023C108.753 24.9399 108.584 24.9399 108.497 24.9399C107.304 25.2715 106.109 25.4378 105 25.4378C103.037 25.4378 102.696 24.8576 102.696 23.532V23.1163H109.266C109.521 23.1163 109.694 22.9518 109.694 22.7033V20.3837C109.608 16.9037 107.987 15.2455 104.489 15.2455L104.481 15.2473ZM57.6398 25.3555C56.9567 25.3555 56.4467 25.3555 55.9367 25.2715V18.8864C56.7053 18.5504 57.729 18.2232 58.4959 18.2232C59.5205 18.2232 59.9477 18.6388 59.9477 19.5497V23.2729C59.9477 24.6817 59.6061 25.3449 57.6434 25.3449L57.6398 25.3555ZM118.306 25.6032C118.306 25.52 118.224 25.3555 118.139 25.2715C118.054 25.1831 117.884 25.1831 117.798 25.1831C117.286 25.2627 116.86 25.3511 116.518 25.3511C115.835 25.3511 115.58 25.1035 115.58 24.4402V18.2232H118.139C118.394 18.2232 118.564 18.0551 118.564 17.8075V15.9061C118.564 15.6585 118.394 15.4905 118.139 15.4905H115.579V12.5102C115.579 12.3422 115.492 12.2581 115.406 12.1759C115.321 12.0928 115.151 12.0928 115.065 12.0928L112.421 12.4288C112.166 12.4288 111.993 12.6764 111.993 12.8418V15.4931H110.545C110.29 15.4931 110.116 15.6594 110.116 15.9088V17.8128C110.116 18.0604 110.29 18.2285 110.545 18.2285H111.993V24.8541C111.993 27.0915 113.189 28.2501 115.663 28.2501C116.346 28.2501 117.539 28.0865 118.308 27.8344C118.479 27.7548 118.65 27.5868 118.563 27.3392L118.308 25.6005L118.306 25.6032ZM50.8163 25.6032C50.8163 25.52 50.7316 25.3555 50.646 25.2715C50.5613 25.1831 50.391 25.1831 50.3054 25.1831C49.8773 25.2627 49.3673 25.3511 49.0257 25.3511C48.3427 25.3511 48.0876 25.1035 48.0876 24.4402V18.2232H50.6469C50.9019 18.2232 51.075 18.0551 51.075 17.8075V15.9061C51.075 15.6585 50.9019 15.4905 50.6469 15.4905H48.0849V12.5102C48.0849 12.3422 47.9993 12.2581 47.9137 12.1759C47.8281 12.0928 47.6587 12.0928 47.5721 12.0928L44.9291 12.4288C44.6741 12.4288 44.5038 12.6764 44.5038 12.8418V15.4931H43.0484C42.7933 15.4931 42.6203 15.6594 42.6203 15.9088V17.8128C42.6203 18.0604 42.7915 18.2285 43.0484 18.2285H44.4983V24.8541C44.4983 27.0915 45.6914 28.2501 48.166 28.2501C48.849 28.2501 50.0422 28.0865 50.8072 27.8344C50.9802 27.7548 51.1487 27.5868 51.0622 27.3392L50.8072 25.6005L50.8163 25.6032ZM86.227 25.4378C86.227 25.3547 86.1414 25.1884 86.0567 25.1062C85.972 25.023 85.8017 25.023 85.7161 25.023C84.9483 25.1884 84.1805 25.2706 83.4118 25.2706C81.7059 25.2706 81.2788 24.8576 81.2788 23.4489V20.0529C81.2788 18.6432 81.7906 18.2294 83.4118 18.2294C83.8399 18.2294 84.778 18.3125 85.7161 18.477C85.8008 18.477 85.9711 18.477 86.0567 18.3947C86.1405 18.3125 86.2261 18.2294 86.2261 18.0631L86.5695 16.075C86.5695 15.8274 86.4829 15.6612 86.227 15.578C85.2042 15.2464 84.0093 15.1624 83.3271 15.1624C79.3161 15.1624 77.694 16.5721 77.694 20.0529V23.3657C77.694 26.8457 79.3152 28.2545 83.3244 28.2545C84.2625 28.2545 85.3718 28.0891 86.2252 27.8388C86.4802 27.7575 86.5667 27.5912 86.5667 27.3436L86.2243 25.4378H86.227ZM27.6919 25.1062H30.8504C32.2166 25.1062 32.7266 24.7745 32.7266 23.6974V22.4504C32.7266 21.3715 32.3022 20.9558 31.1054 20.9558H29.9943C29.7393 20.9558 29.5662 20.7878 29.5662 20.5402V18.4805C29.5662 18.2311 29.7393 18.0649 29.9943 18.0649H30.5918C31.7011 18.0649 32.1273 17.651 32.1273 16.657V15.1642C32.1273 14.584 31.9616 14.0039 30.5972 14.0039H27.6837V25.1062H27.6919ZM75.6439 15.4949H73.0026C72.7476 15.4949 72.5746 15.6612 72.5746 15.9106V24.029C71.6365 24.526 70.2703 25.023 69.5053 25.023C68.9069 25.023 68.6492 24.7754 68.6492 24.1944V15.9159C68.6492 15.6682 68.4761 15.5002 68.2211 15.5002H65.5717C65.3167 15.5002 65.1454 15.6682 65.1454 15.9159V24.5322C65.1454 27.0173 66.1673 28.3438 68.2147 28.3438C69.5809 28.3438 71.5427 27.8459 73.1638 27.1004L73.3342 27.7637C73.4225 27.9299 73.5937 28.0962 73.7622 28.0962H75.7267C75.9818 28.0962 76.153 27.9282 76.153 27.6805V15.9097C76.0674 15.7416 75.898 15.494 75.6411 15.494L75.6439 15.4949ZM10.706 9.53077C5.92541 9.53077 2 10.7715 2 12.3457C2 12.7613 3.0237 18.6424 3.45086 20.9629C3.62117 22.0392 6.43818 23.5311 10.7033 23.5311C14.9694 23.5311 17.6998 22.0454 17.9558 20.9665C18.3747 18.6494 19.4039 12.7684 19.4039 12.3528C19.3128 10.7786 15.4785 9.53696 10.6969 9.53696L10.706 9.53077ZM10.706 21.6262C9.1714 21.6262 7.97647 20.4659 7.97647 18.9749C7.97647 17.4803 9.16957 16.3218 10.7051 16.3218C12.2407 16.3218 13.4356 17.4803 13.4356 18.9749C13.4356 20.381 12.2407 21.6191 10.7051 21.6191L10.706 21.6262ZM98.5934 27.3427L95.0942 21.7093L98.5096 16.1644C98.5943 15.9963 98.5943 15.8354 98.5096 15.7487C98.4231 15.5869 98.2528 15.5011 98.0816 15.5011H95.1808C95.0095 15.5011 94.8383 15.5869 94.7527 15.7487L91.5104 21.222V11.1049C91.5104 10.8555 91.3373 10.6893 91.0823 10.6893H88.4365C88.1815 10.6893 88.0085 10.8555 88.0085 11.1049V27.5894C88.0085 27.8371 88.1815 28.0051 88.4365 28.0051H91.0814C91.3364 28.0051 91.5095 27.8371 91.5095 27.5894V22.2037L94.9194 27.8371C95.005 28.0051 95.1744 28.0873 95.2609 28.0873H98.1608C98.4158 28.0873 98.5889 27.9211 98.5889 27.6717C98.6727 27.5072 98.6727 27.4241 98.5889 27.3409L98.5934 27.3427ZM102.604 20.3032V19.8875C102.604 18.6494 103.2 18.1542 104.48 18.1542C105.931 18.1542 106.187 18.8175 106.187 19.8964V20.312H102.604V20.3032ZM10.707 17.5696C11.4592 17.5696 12.0731 18.1692 12.0731 18.8962C12.0731 19.6302 11.4592 20.2227 10.707 20.2227C9.95466 20.2227 9.3408 19.6302 9.3408 18.8962C9.3408 18.1692 9.95284 17.5696 10.707 17.5696ZM59.4276 15.2526C58.148 15.2526 56.7828 15.5869 55.9303 15.9159V11.1934C55.9303 10.9457 55.759 10.7777 55.5022 10.7777H52.8573C52.6023 10.7777 52.4293 10.9457 52.4293 11.1934V27.5983C52.4293 27.8459 52.6023 28.0139 52.7708 28.0139C54.392 28.2616 56.3547 28.4296 57.464 28.4296C62.4131 28.4296 63.4368 26.3584 63.4368 23.2914V19.7275C63.4368 16.7472 62.0707 15.2526 59.4267 15.2526H59.4276ZM38.2668 13.758C38.0118 13.758 37.8388 13.5918 37.8388 13.3424V11.1049C37.8388 10.8555 38.0118 10.6893 38.2668 10.6893H40.9126C41.1694 10.6893 41.3407 10.9387 41.3407 11.1049V13.3406C41.3407 13.5882 41.1694 13.7563 40.9126 13.7563H38.2668V13.758ZM10.7051 13.1743C7.63219 13.1743 5.15855 12.6791 5.15855 12.0158C5.15855 11.3526 7.63219 10.8555 10.7051 10.8555C13.7762 10.8555 16.2517 11.3526 16.2517 12.0141C16.2517 12.6773 13.7762 13.1752 10.7051 13.1752V13.1743ZM44.92 6.63006C44.4937 6.63006 43.8107 6.4638 43.4691 6.21441C43.3872 6.21441 43.3872 6.13305 43.3872 6.04992L43.5575 5.38665L43.6394 5.3044H43.8098C44.2378 5.39284 44.6622 5.47243 45.0885 5.47243C45.6076 5.47243 45.6076 5.31325 45.6076 5.05678C45.6076 4.8976 45.6076 4.72957 44.838 4.56154C43.6449 4.31392 43.4719 3.9867 43.4719 3.07581C43.4719 2.24805 43.7287 1.66968 45.2661 1.66968C45.6914 1.66968 46.2889 1.74927 46.6322 1.83417C46.6322 1.83417 46.7142 1.9173 46.7142 1.99954L46.6295 2.74241L46.5448 2.82554H46.3736C46.2224 2.82554 46.0402 2.8105 45.8544 2.79282L45.6932 2.7769C45.5074 2.75921 45.3253 2.74152 45.1759 2.74152C44.6641 2.74152 44.6641 2.82377 44.6641 3.07227C44.6641 3.40833 44.6641 3.40833 45.2615 3.57282C46.5402 3.90534 46.7096 4.15385 46.7096 5.14699C46.7096 6.05257 46.3727 6.63095 44.9519 6.63979H44.9191L44.92 6.63006ZM41.1631 6.63006C40.653 6.63006 40.0547 6.4638 39.4572 6.21441C39.3716 6.21441 39.3716 6.13305 39.3716 6.04992L39.5428 5.38665L39.6339 5.3044H39.8069C40.2323 5.39284 40.6594 5.47243 41.0857 5.47243C41.5957 5.47243 41.5957 5.31325 41.5957 5.05678C41.5957 4.8976 41.5957 4.72957 40.8288 4.56154C39.6357 4.31392 39.4627 3.9867 39.4627 3.07581C39.4627 2.24805 39.7204 1.66968 41.2569 1.66968C41.6831 1.66968 42.2806 1.74927 42.623 1.83417C42.7068 1.83417 42.7924 1.9173 42.7924 1.99954L42.7086 2.74594L42.6249 2.82819H42.5338C42.3853 2.82819 42.2032 2.8105 42.0174 2.79282L41.8571 2.77778C41.6713 2.76009 41.4891 2.74594 41.3379 2.74594C40.8188 2.74594 40.8188 2.82554 40.8188 3.07316C40.8188 3.40656 40.8188 3.40656 41.4181 3.57194C42.6977 3.90534 42.8689 4.15385 42.9536 5.1461C42.9536 6.05257 42.6167 6.63183 41.1959 6.64067H41.1631V6.63006ZM56.6097 1.74131C56.0969 1.74131 55.4139 1.90757 54.7317 2.15696L54.6461 1.90757C54.6461 1.82444 54.5614 1.82444 54.4758 1.82444H53.708C53.6224 1.82444 53.5368 1.90757 53.5368 1.98981V6.38244C53.5368 6.4638 53.6224 6.54693 53.708 6.54693H54.7317C54.8173 6.54693 54.902 6.4638 54.902 6.38156V3.3137C55.2436 3.14833 55.7554 2.98295 56.0969 2.98295C56.352 2.98295 56.4385 3.0652 56.4385 3.3137V6.38244C56.4385 6.4638 56.5232 6.54693 56.6088 6.54693H57.6289C57.7108 6.54693 57.8019 6.4638 57.8019 6.38156V3.14568C57.7108 2.15165 57.3738 1.73689 56.6088 1.73689L56.6097 1.74131ZM48.4173 1.82444H47.3927C47.308 1.82444 47.2233 1.90757 47.2233 1.98981V6.38244C47.2233 6.4638 47.308 6.54693 47.3936 6.54693H48.4228C48.5121 6.54693 48.5959 6.4638 48.5959 6.38156V1.98716C48.5959 1.90492 48.5121 1.82179 48.4228 1.82179L48.4173 1.82444ZM34.4234 0.00265309H33.3997C33.315 0.00265309 33.2294 0.0848988 33.2294 0.167144V6.38244C33.2294 6.4638 33.3113 6.54693 33.3933 6.54693H34.4225C34.5044 6.54693 34.59 6.4638 34.59 6.38156V0.165376C34.59 0.08313 34.5044 -1.30726e-08 34.4197 -1.30726e-08L34.4234 0.00265309ZM27.9387 0.250274C27.9387 0.167144 27.854 0.167144 27.7684 0.167144H26.2328C26.1472 0.167144 26.0616 0.250274 26.0616 0.250274L24.0943 6.29931V6.4638C24.0943 6.54693 24.1763 6.54693 24.261 6.54693H25.3722C25.4559 6.54693 25.5406 6.4638 25.5406 6.4638L26.9068 1.98893C26.9068 1.98893 26.9068 1.90757 27.0771 1.90757C27.1609 1.90757 27.2465 1.98981 27.2465 1.98981L27.8449 4.06187H26.9906C26.9032 4.06187 26.8175 4.14412 26.8175 4.14412L26.5625 4.96658V5.1293C26.5625 5.1293 26.6472 5.21243 26.7328 5.21243H28.181L28.5234 6.37271C28.5234 6.45407 28.609 6.45407 28.6946 6.45407H29.8058C29.8914 6.45407 29.8914 6.45407 29.9788 6.37006V6.20203L27.9387 0.24939V0.250274ZM36.7276 5.55291C37.1557 5.55291 37.4107 5.46978 37.581 5.38753V4.72426H36.7276C36.3861 4.72426 36.3014 4.88964 36.3014 5.13814C36.3014 5.46713 36.3852 5.55114 36.7203 5.55379H36.7276V5.55291ZM32.6319 5.55291C32.6319 5.46978 32.6319 5.46978 32.5472 5.46978H32.376C32.2057 5.55291 32.0344 5.55291 31.8641 5.55291C31.6091 5.55291 31.5226 5.46978 31.5226 5.22127V2.81846H32.4607C32.5472 2.81846 32.6319 2.73622 32.6319 2.65309V1.98981C32.6319 1.90757 32.5472 1.82444 32.4616 1.82444H31.5235V0.664156C31.5235 0.58191 31.5235 0.58191 31.4379 0.58191C31.4379 0.58191 31.3523 0.502318 31.2666 0.58191L30.2429 0.749939C30.1573 0.749939 30.0726 0.838375 30.0726 0.917968V1.90845H29.5608C29.4788 1.90845 29.3968 1.99512 29.3968 2.07648V2.82377C29.3968 2.90778 29.4843 2.9918 29.5699 2.9918H30.0827V5.47685C30.0827 6.30462 30.5089 6.71938 31.4488 6.71938C31.7038 6.71938 32.1301 6.63537 32.3869 6.55135C32.7275 6.38598 32.7275 6.38598 32.7275 6.30373L32.6419 5.55733L32.6319 5.55291ZM50.8063 5.55291C51.2344 5.55291 51.4894 5.46978 51.6597 5.38753V4.72426H50.8063C50.4657 4.72426 50.38 4.88964 50.38 5.13814C50.38 5.46713 50.4638 5.55114 50.799 5.55379H50.8063V5.55291ZM36.9826 1.74131C36.4726 1.74131 35.8742 1.82444 35.448 1.90757C35.3624 1.90757 35.2777 1.98981 35.3624 2.07294L35.4535 2.73622C35.4535 2.81846 35.4535 2.81846 35.5427 2.81846H35.6274C36.0555 2.73622 36.4808 2.73622 36.8205 2.73622C37.5036 2.73622 37.6748 2.90159 37.6748 3.31547V3.73112H36.6457C35.621 3.73112 35.1948 4.14412 35.1948 5.0559C35.1948 5.96679 35.7067 6.4638 36.4744 6.4638C36.9845 6.4638 37.4125 6.29843 37.8388 6.13305V6.29843C37.8388 6.38156 37.9244 6.38156 38.0091 6.38156H38.7778C38.8597 6.38156 38.9508 6.29312 38.9508 6.21353V3.3933C38.9508 2.15077 38.4408 1.736 36.9908 1.736L36.9826 1.74131ZM50.9775 1.74131C50.4657 1.74131 49.8682 1.82444 49.441 1.90757C49.35 1.90757 49.268 1.98981 49.35 2.07294L49.4319 2.73622C49.4319 2.81846 49.4319 2.81846 49.5166 2.81846H49.6023C50.0303 2.73622 50.4556 2.73622 50.7954 2.73622C51.4784 2.73622 51.6515 2.90159 51.6515 3.31547V3.73112H50.6351C49.6123 3.73112 49.1851 4.14412 49.1851 5.0559C49.1851 5.96679 49.697 6.4638 50.4657 6.4638C50.9775 6.4638 51.4038 6.29843 51.8318 6.13305L51.9156 6.29843C51.9156 6.38156 52.0012 6.38156 52.0868 6.38156H52.8546C52.9402 6.38156 53.0249 6.29312 53.0249 6.21353V3.3933C52.9402 2.15077 52.4275 1.736 50.9775 1.736V1.74131ZM48.4183 0.00176874H47.3927C47.308 0.00176874 47.2233 0.0848988 47.2233 0.167144V0.995792C47.2233 1.07538 47.308 1.15498 47.3936 1.15498H48.4228C48.5121 1.15498 48.5959 1.07008 48.5959 0.986948V0.165376C48.5959 0.08313 48.5121 -1.30726e-08 48.4228 -1.30726e-08L48.4183 0.00176874Z" fill="#D6DAE5"/>
</svg>
