<svg width="120" height="30" viewBox="0 0 120 30" fill="none" xmlns="http://www.w3.org/2000/svg">
<path fill-rule="evenodd" clip-rule="evenodd" d="M117.15 23.5391C117.945 23.5391 118.578 24.167 118.578 24.9541C118.578 25.75 117.945 26.3691 117.143 26.3691C116.349 26.3691 115.704 25.75 115.704 24.9541C115.704 24.167 116.349 23.5391 117.143 23.5391H117.15ZM25.21 26.1798H21.2755L21.1079 25.2158C19.3101 26.1798 17.7071 26.3372 16.6506 26.3372C13.7635 26.3372 12.2279 24.4694 12.2279 21.8836C12.2279 18.8343 14.0203 17.7448 17.2262 17.7448H20.4868V17.0868C20.4868 15.5303 20.3046 15.074 17.8273 15.074H13.8036L14.1988 11.2535H18.6124C24.026 11.2535 25.2137 12.9161 25.2137 17.1186V26.1798H25.21V26.1798ZM83.8271 20.1891C83.8271 23.3021 82.5029 26.3213 76.9599 26.3213C71.4115 26.3213 70.0618 23.3021 70.0618 20.1891V17.1823C70.0618 14.0693 71.4097 11.0501 76.9581 11.0501C82.5138 11.0501 83.8435 14.0693 83.8435 17.1841V20.1909L83.8271 20.1891ZM98.9423 20.1891C98.9423 23.3021 97.6162 26.3213 92.0751 26.3213C86.5248 26.3213 85.1751 23.3021 85.1751 20.1891V17.1823C85.1751 14.0693 86.523 11.0501 92.0732 11.0501C97.6107 11.0501 98.9404 14.0693 98.9404 17.1841V20.1909L98.9423 20.1891ZM117.143 23.762C116.506 23.762 115.977 24.2926 115.977 24.9523C115.977 25.6244 116.506 26.1515 117.15 26.1515C117.797 26.1692 118.316 25.6386 118.316 24.9665C118.316 24.312 117.797 23.7779 117.15 23.7779H117.143V23.762ZM9.0785 26.1497H4.36071V15.0775H2V11.2571H4.35889V8.96658C4.35889 5.85362 5.68861 4 9.47377 4H12.625V7.82044H10.6578C9.18232 7.82044 9.08396 8.35106 9.08396 9.34862L9.06575 11.2588H12.636L12.217 15.0793H9.06757V26.1515L9.0785 26.1497V26.1497ZM116.872 25.7783H116.613V24.1988C116.759 24.1811 116.886 24.1635 117.087 24.1635C117.336 24.1635 117.498 24.2112 117.597 24.2802C117.695 24.3509 117.742 24.4571 117.742 24.6074C117.742 24.8143 117.604 24.9399 117.433 24.9912V25.0036C117.571 25.0284 117.669 25.1522 117.706 25.3856C117.742 25.6297 117.779 25.7252 117.804 25.7748H117.531C117.495 25.7252 117.453 25.5802 117.422 25.375C117.385 25.1716 117.276 25.0973 117.072 25.0973H116.89V25.7765L116.872 25.7783V25.7783ZM116.872 24.9028H117.059C117.272 24.9028 117.453 24.8267 117.453 24.6322C117.453 24.4942 117.351 24.3562 117.059 24.3562C116.975 24.3562 116.914 24.3616 116.872 24.3686V24.9028V24.9028ZM16.9475 21.8252C16.9475 22.66 17.3556 23.0934 18.2518 23.0934C19.2172 23.0934 19.7855 22.7892 20.4886 22.4743V20.8029H18.3829C17.3847 20.8029 16.9475 20.9798 16.9475 21.8234V21.8252V21.8252ZM62.016 14.8635C61.0506 14.8635 60.3584 15.1642 59.6553 15.4826V22.5221C60.3293 22.584 60.7155 22.584 61.3566 22.584C63.67 22.584 63.9833 21.5581 63.9833 20.1255V16.7578C63.9833 15.7036 63.619 14.8529 62.016 14.8529V14.8635ZM76.9435 14.8635C75.3369 14.8635 74.7814 15.7125 74.7814 16.756V20.6119C74.7814 21.6731 75.3369 22.5221 76.9435 22.5221C78.5465 22.5221 79.1039 21.6731 79.1039 20.6119V16.756C79.1039 15.7019 78.5392 14.8511 76.9363 14.8511L76.9435 14.8635ZM38.5874 15.3411C36.1393 14.9343 35.4361 14.8458 34.2594 14.8458C32.1428 14.8458 31.5035 15.2933 31.5035 17.039V20.3289C31.5035 22.0711 32.141 22.5221 34.2594 22.5221C35.438 22.5221 36.1393 22.4336 38.5874 22.0268V25.7482C36.4435 26.2169 35.0463 26.339 33.866 26.339C28.7985 26.339 26.7838 23.7566 26.7838 20.0246V17.3539C26.7838 13.6148 28.7985 11.0271 33.866 11.0271C35.0463 11.0271 36.4435 11.1509 38.5874 11.6197V15.3411V15.3411ZM53.3601 20.0282H44.7041V20.3289C44.7041 22.0711 45.3417 22.5221 47.4583 22.5221C49.3618 22.5221 50.5185 22.4336 52.963 22.0268V25.7482C50.6077 26.2169 49.38 26.339 47.0667 26.339C42.0028 26.339 39.9991 23.7566 39.9991 20.0246V16.9647C39.9991 13.6979 41.4928 11.0218 46.6841 11.0218C51.8846 11.0218 53.3692 13.6661 53.3692 16.9647V20.0246L53.3601 20.0282V20.0282ZM92.0568 14.8635C90.4539 14.8635 89.8983 15.7125 89.8983 16.7613V20.6225C89.8983 21.6837 90.4539 22.5327 92.0568 22.5327C93.6598 22.5327 94.2245 21.6837 94.2245 20.6225V16.7596C94.2245 15.7036 93.6598 14.8529 92.0568 14.8529V14.8635ZM114.456 26.148H109.343L105.015 19.1438V26.148H100.297V5.14083L105.015 4.38028V17.9022L109.341 11.2518H114.442L109.715 18.5035L114.438 26.1444L114.456 26.148V26.148ZM46.6714 14.4744C45.0684 14.4744 44.7041 15.3234 44.7041 16.3846V16.9736H48.6387V16.3793C48.6387 15.3358 48.2744 14.4797 46.6714 14.4797V14.4744ZM68.7047 20.0989C68.7047 23.7071 67.63 26.3425 61.1818 26.3425C58.8575 26.3425 57.4913 26.1409 54.923 25.7588V5.13729L59.6407 4.37674V11.5878C60.6608 11.2199 61.9814 11.0342 63.1836 11.0342C67.9014 11.0342 68.6847 13.0859 68.6847 16.3811V20.1131L68.7047 20.0989Z" fill="#D6DAE5"/>
</svg>
