<svg width="120" height="30" viewBox="0 0 120 30" fill="none" xmlns="http://www.w3.org/2000/svg">
<path fill-rule="evenodd" clip-rule="evenodd" d="M17.1296 8.86686C15.0704 8.71917 13.3235 9.98381 12.3499 9.98381C11.3608 9.98381 9.83619 8.8987 8.21958 8.92699C6.09749 8.95883 4.14024 10.1262 3.04641 11.9727C0.841437 15.6897 2.48355 21.1958 4.63115 24.2097C5.68126 25.6848 6.93357 27.3438 8.57933 27.2837C10.1641 27.2227 10.7624 26.287 12.6769 26.287C14.5904 26.287 15.1305 27.2837 16.8054 27.2519C18.5094 27.2227 19.5905 25.7502 20.6324 24.2671C21.8392 22.5577 22.3356 20.903 22.3647 20.8128C22.3265 20.8004 19.0413 19.5738 19.0085 15.8993C18.9794 12.8279 21.5915 11.3501 21.7108 11.2785C20.2272 9.1587 17.9366 8.92523 17.1296 8.86686V8.86686ZM99.4258 20.8641V21.1896C99.4258 24.3971 97.0095 27.2669 92.1606 27.2669C87.3253 27.2669 84.4509 24.3193 84.4509 19.1679V17.0163C84.4509 11.9179 87.339 8.87835 92.1734 8.87835C96.7126 8.87835 99.4258 11.657 99.4258 15.1255V15.3077H95.7855C95.7855 13.5478 94.6306 11.9825 92.1998 11.9825C89.6077 11.9825 88.3044 13.6645 88.3044 17.0163V19.1679C88.3044 22.5586 89.595 24.1371 92.2262 24.1371C94.8456 24.1371 95.7855 22.7018 95.7855 20.8641H99.4258V20.8641ZM33.2256 21.8811H33.2794L36.5436 9.16577H40.398L43.6749 21.8811H43.7286L46.7651 9.16577H50.8208L45.7305 26.968H41.8752L38.5045 14.7992H38.4371L35.0654 26.968H31.2384L26.1344 9.16577H30.191L33.2256 21.8811V21.8811ZM107.269 16.3123H114.763V9.16577H118.578V26.968H114.763V19.3775H107.269V26.968H103.469V9.16577H107.269V16.3123V16.3123ZM81.9928 9.16577V12.2434H76.5273V26.968H72.7394V12.2434H67.2866V9.16577H81.9928V9.16577ZM61.4568 9.16577L67.3531 26.9671H63.2829L61.9759 22.4807H56.177L54.8491 26.9671H51.0485L56.9585 9.16577H61.4568V9.16577ZM61.1808 19.7427L59.1206 12.674H59.0806L56.9885 19.7427H61.1808ZM15.7753 6.97167C14.8955 7.95154 13.5102 8.69706 12.1505 8.59536C11.9574 7.2016 12.6678 5.74771 13.4765 4.83859C14.3791 3.8145 15.901 3.04776 17.1597 3C17.3218 4.42029 16.7325 5.85118 15.8582 6.87527L15.8172 6.92391L15.7753 6.97167Z" fill="#D6DAE5"/>
</svg>
